<?xml version="1.0" standalone="no"?>
<!DOCTYPE svg PUBLIC "-//W3C//DTD SVG 20010904//EN"
 "http://www.w3.org/TR/2001/REC-SVG-20010904/DTD/svg10.dtd">
<svg version="1.0" xmlns="http://www.w3.org/2000/svg"
 width="260.000000pt" height="260.000000pt" viewBox="0 0 260.000000 260.000000"
 preserveAspectRatio="xMidYMid meet">
<g transform="translate(0.000000,260.000000) scale(0.100000,-0.100000)"
fill="#000000" stroke="none">
<path d="M174 2586 c-60 -19 -107 -58 -140 -118 l-29 -53 -3 -1085 c-2 -762 0
-1100 8 -1136 14 -68 57 -124 122 -160 l53 -29 1094 -3 c1239 -3 1164 -7 1245
74 80 80 76 8 76 1224 0 1216 4 1144 -76 1224 -80 81 -7 76 -1228 75 -855 0
-1090 -3 -1122 -13z m1126 -415 c0 -182 0 -181 -55 -181 -14 0 -49 -9 -78 -20
-106 -40 -187 -152 -224 -308 -26 -112 -27 -621 0 -732 47 -200 143 -300 315
-326 l42 -7 0 -170 0 -170 -76 6 c-378 32 -634 303 -698 740 -21 136 -21 448
-1 577 46 302 169 517 368 644 101 65 253 113 360 115 l47 1 0 -169z m790
-871 l0 -1040 -208 0 -208 0 -187 322 -187 323 0 354 c0 298 2 352 13 336 8
-11 92 -155 188 -320 l174 -300 3 683 2 682 205 0 205 0 0 -1040z"/>
</g>
</svg>
