<svg xmlns="http://www.w3.org/2000/svg" width="216" height="216" viewBox="0 0 216 216" fill="none"><style>.a{fill:#EEE;stroke-width:4;stroke:#CCC;}.b{fill:#CCC;}.c{fill:#EEE;stroke-width:4;stroke:#666;}.d{fill:#666;}</style><path d="M55 8C55 4.7 57.7 2 61 2H155C158.3 2 161 4.7 161 8V192H55V8Z" class="a"/><path d="M55 192H161V206C161 209.3 158.3 212 155 212H61C57.7 212 55 209.3 55 206V192Z" class="a"/><rect x="97.2" y="7" width="20.6" height="3" rx="1.5" class="b"/><path d="M111.4 203C111.4 204.9 109.8 206.5 107.9 206.5 106 206.5 104.5 204.9 104.5 203 104.5 201.1 106 199.5 107.9 199.5 109.8 199.5 111.4 201.1 111.4 203Z" style="fill:#CCC;stroke:#CCC"/><path d="M8 161C4.7 161 2 158.3 2 155L2 61C2 57.7 4.7 55 8 55L192 55V161H8Z" class="c"/><path d="M192 161V55H206C209.3 55 212 57.7 212 61V155C212 158.3 209.3 161 206 161H192Z" class="c"/><rect x="7" y="118.8" width="20.6" height="3" rx="1.5" transform="rotate(-90 7 118.804)" class="d"/><ellipse cx="203" cy="108.1" rx="3.9" ry="4" transform="rotate(-90 203 108.071)" class="d"/><path d="M18.6 19.5C22.9 13.5 29.6 10 39.3 10V12C30.1 12 24.1 15.3 20.3 20.6 16.9 25.4 15.3 31.9 14.9 39.6L16 37.9 17.7 39.1 13.8 44.8 10 39.1 11.7 37.9 12.9 39.8C13.2 31.8 15 24.7 18.6 19.5Z" class="b"/><path d="M198.7 197.3C194.5 203.3 187.8 206.8 178 206.8L178 204.8C187.2 204.8 193.3 201.5 197.1 196.2 200.4 191.4 202.1 184.9 202.4 177.2L201.3 178.9 199.7 177.7 203.5 172 207.3 177.7 205.7 178.9 204.4 177C204.1 185 202.4 192.1 198.7 197.3Z" class="b"/></svg>
